<svg width="405" height="498" viewBox="0 0 405 498" fill="none" xmlns="http://www.w3.org/2000/svg">
<path d="M98.3283 66.938C98.3283 40.163 119.366 19.126 146.14 19.126C172.914 19.126 193.952 40.164 193.952 66.938V112.838C205.426 101.363 213.077 84.15 213.077 66.938C213.078 30.6 182.478 0 146.141 0C109.804 0 79.2033 30.6 79.2033 66.938C79.2033 86.063 86.8533 101.363 98.3283 112.838V66.938Z" fill="white"/>
<path d="M375.64 172.125C360.34 172.125 346.952 185.513 346.952 200.813V242.888V248.625H327.827V204.638V181.688C327.827 166.388 314.439 153 299.139 153C283.839 153 270.451 166.388 270.451 181.688V200.813V229.5H251.326V200.812V162.562C251.326 147.262 237.938 133.874 222.638 133.874C207.338 133.874 193.951 147.262 193.951 162.562V198.9V248.625H174.826V200.813V66.938C174.826 51.638 161.438 38.25 146.138 38.25C130.838 38.25 117.45 51.638 117.45 66.938V263.925C77.2873 221.85 25.6503 175.95 4.61334 196.987C-16.4247 218.025 37.1253 275.4 111.713 401.625C146.138 459 188.213 497.25 260.887 497.25C339.299 497.25 404.325 432.225 404.325 353.812V290.7V200.812C404.328 185.513 390.94 172.125 375.64 172.125Z" fill="white"/>
</svg>
