<svg width="474" height="92" viewBox="0 0 474 92" fill="none" xmlns="http://www.w3.org/2000/svg">
<path d="M25.6725 61.6949L18.9506 45.654V73H4.43735V28.4672L0.236145 18.0024H18.4159L29.1099 40.9945L39.8039 18.0024H53.8588V73H39.3455V45.8067L32.6236 61.6949H25.6725ZM78.267 73.7639C75.2625 73.7639 72.5126 73.4329 70.0173 72.7708C67.573 72.1088 65.4596 70.9376 63.6773 69.2571C61.895 67.5766 60.52 65.2596 59.5525 62.306C58.5849 59.3525 58.1012 55.5841 58.1012 51.001C58.1012 43.5661 59.4761 37.9645 62.226 34.1961C65.0268 30.3769 69.5081 28.4672 75.6698 28.4672C81.2715 28.4672 85.3199 30.0204 87.8151 33.1267C90.3613 36.1822 91.6344 40.7398 91.6344 46.7998C91.6344 48.2256 91.5835 49.7024 91.4817 51.2301C91.3798 52.7069 91.2016 54.0564 90.947 55.2786H72.6908C72.9964 58.3849 73.8621 60.4728 75.2879 61.5422C76.7138 62.5606 79.1072 63.0699 82.4682 63.0699C83.6394 63.0699 84.8361 62.968 86.0583 62.7643C87.3314 62.5606 88.5535 62.3315 89.7248 62.0769V72.4653C87.9425 72.8218 86.0583 73.1273 84.0723 73.3819C82.1372 73.6365 80.2021 73.7639 78.267 73.7639ZM76.2045 38.5501C74.1676 38.5501 72.9709 41.3 72.6144 46.7998H78.878C78.878 45.6794 78.8271 44.4827 78.7253 43.2096C78.6743 41.9365 78.4452 40.8417 78.0378 39.9251C77.6813 39.0084 77.0702 38.5501 76.2045 38.5501ZM95.8076 73V29.0783H107.495L109.022 35.1892H109.175C109.99 32.643 111.416 30.7843 113.453 29.613C115.541 28.4418 118.163 28.1362 121.32 28.6964V41.6819C119.334 41.6819 117.272 41.8092 115.133 42.0639C113.045 42.3185 111.187 42.6749 109.557 43.1333V73H95.8076ZM143.294 73.7639C140.544 73.7639 137.998 73.4074 135.656 72.6945C133.313 71.9815 131.251 70.7848 129.469 69.1043C127.737 67.4239 126.388 65.1068 125.42 62.1533C124.453 59.1997 123.969 55.4822 123.969 51.001C123.969 46.6215 124.529 42.9805 125.649 40.0778C126.821 37.1752 128.399 34.8836 130.385 33.2031C132.371 31.5227 134.612 30.3259 137.107 29.613C139.602 28.8492 142.225 28.4672 144.975 28.4672C146.757 28.4672 148.387 28.5945 149.863 28.8492C151.34 29.1038 152.868 29.4857 154.447 29.9949V47.1817H146.579L145.051 39.2376C142.76 39.2376 141.028 40.1033 139.857 41.8347C138.737 43.5661 138.176 46.6725 138.176 51.1537C138.176 54.3619 138.584 56.8317 139.399 58.5631C140.213 60.2945 141.359 61.4658 142.836 62.0769C144.313 62.688 146.07 62.9171 148.107 62.7643C150.144 62.5606 152.359 62.1533 154.752 61.5422V72.3889C153.174 72.8472 151.315 73.1782 149.176 73.3819C147.037 73.6365 145.077 73.7639 143.294 73.7639ZM169.748 73.7639C167.711 73.7639 165.801 73.2546 164.019 72.2361C162.236 71.1667 160.785 69.639 159.665 67.653C158.544 65.667 157.984 63.2736 157.984 60.4728C157.984 56.0933 159.512 52.7833 162.567 50.5427C165.674 48.302 169.671 47.1817 174.56 47.1817H177.844V42.9805C177.844 41.5037 177.335 40.5107 176.317 40.0014C175.298 39.4413 174 39.1612 172.421 39.1612C170.486 39.1612 168.627 39.3394 166.845 39.6959C165.063 40.0524 163.28 40.5616 161.498 41.2236V30.5296C163.79 30.0204 166.157 29.5621 168.602 29.1547C171.097 28.6964 173.592 28.4672 176.088 28.4672C178.888 28.4672 181.46 28.8237 183.803 29.5366C186.145 30.1986 188.029 31.4208 189.455 33.2031C190.881 34.9855 191.594 37.5316 191.594 40.8417V73H179.678L178.761 69.7154C177.488 71.0904 176.062 72.1088 174.483 72.7708C172.905 73.4329 171.326 73.7639 169.748 73.7639ZM175.095 63.681C176.113 63.681 177.03 63.2227 177.844 62.306V54.7439H176.851C175.324 54.7439 174.025 55.1258 172.956 55.8896C171.886 56.6026 171.352 57.6974 171.352 59.1742C171.352 60.6001 171.734 61.7204 172.497 62.5352C173.261 63.299 174.127 63.681 175.095 63.681ZM209.859 73.7639C207.058 73.7639 204.741 73.1782 202.908 72.007C201.126 70.7848 199.7 69.1298 198.63 67.0419C197.612 64.9541 196.873 62.6116 196.415 60.0145C196.008 57.3664 195.804 54.5911 195.804 51.6884C195.804 43.3369 197.103 37.3789 199.7 33.8142C202.348 30.2496 206.142 28.4672 211.081 28.4672C213.322 28.4672 215.817 28.9255 218.567 29.8422V17.3913L232.316 15.3289V73H220.629L219.484 69.639C218.363 70.9121 216.963 71.9306 215.282 72.6945C213.602 73.4074 211.794 73.7639 209.859 73.7639ZM214.366 63.0699C214.926 63.0699 215.562 62.968 216.275 62.7643C216.988 62.5606 217.752 62.2296 218.567 61.7713V39.6195C217.447 39.314 216.403 39.1612 215.435 39.1612C213.093 39.1612 211.59 40.2306 210.928 42.3694C210.317 44.5082 210.012 47.7418 210.012 52.0704C210.012 56.0933 210.317 58.9451 210.928 60.6255C211.539 62.2551 212.685 63.0699 214.366 63.0699ZM255.773 73.7639C251.241 73.7639 247.575 73 244.774 71.4723C242.024 69.9446 240.012 67.5257 238.739 64.2157C237.517 60.8547 236.906 56.4753 236.906 51.0774C236.906 45.6794 237.517 41.3255 238.739 38.0154C240.012 34.7054 242.024 32.2865 244.774 30.7588C247.575 29.2311 251.241 28.4672 255.773 28.4672C260.356 28.4672 264.023 29.2311 266.773 30.7588C269.523 32.2865 271.509 34.7054 272.731 38.0154C274.004 41.3255 274.64 45.6794 274.64 51.0774C274.64 56.4753 274.004 60.8547 272.731 64.2157C271.509 67.5257 269.523 69.9446 266.773 71.4723C264.023 73 260.356 73.7639 255.773 73.7639ZM255.697 62.9935C257.428 62.9935 258.65 62.0769 259.363 60.2436C260.076 58.3594 260.433 55.3295 260.433 51.1537C260.433 46.9271 260.076 43.8971 259.363 42.0639C258.65 40.1797 257.428 39.2376 255.697 39.2376C254.016 39.2376 252.82 40.1797 252.107 42.0639C251.445 43.8971 251.114 46.9271 251.114 51.1537C251.114 55.3295 251.445 58.3594 252.107 60.2436C252.82 62.0769 254.016 62.9935 255.697 62.9935Z" fill="white"/>
<mask id="path-2-outside-1_17_11" maskUnits="userSpaceOnUse" x="285.474" y="8" width="174" height="72" fill="black">
<rect fill="white" x="285.474" y="8" width="174" height="72"/>
<path d="M291.911 18.0024H306.806V60.0145H323.687L321.32 73H291.911V18.0024ZM327.111 29.0783H340.861V73H327.111V29.0783ZM326.729 15.3289H341.242V25.7174H326.729V15.3289ZM363.682 73.7639C360.525 73.7639 357.469 73.4838 354.516 72.9236C351.613 72.3125 349.092 71.4723 346.953 70.4029V17.3149L360.703 15.3289V31.6754C361.823 30.6569 363.122 29.8676 364.599 29.3075C366.126 28.7473 367.73 28.4672 369.411 28.4672C372.212 28.4672 374.503 29.0783 376.285 30.3005C378.119 31.4717 379.545 33.1013 380.563 35.1892C381.632 37.277 382.371 39.645 382.778 42.293C383.237 44.8901 383.466 47.64 383.466 50.5427C383.466 58.8941 381.785 64.8522 378.424 68.4169C375.063 71.9815 370.149 73.7639 363.682 73.7639ZM363.835 63.0699C366.177 63.0699 367.654 62.0005 368.265 59.8617C368.927 57.7229 369.258 54.4892 369.258 50.1607C369.258 46.1378 368.952 43.3115 368.341 41.6819C367.73 40.0014 366.585 39.1612 364.904 39.1612C364.395 39.1612 363.784 39.2631 363.071 39.4667C362.358 39.6704 361.569 40.0014 360.703 40.4598V62.6116C361.874 62.9171 362.918 63.0699 363.835 63.0699ZM388.055 73V29.0783H399.742L401.27 35.1892H401.423C402.238 32.643 403.664 30.7843 405.7 29.613C407.788 28.4418 410.411 28.1362 413.568 28.6964V41.6819C411.582 41.6819 409.52 41.8092 407.381 42.0639C405.293 42.3185 403.434 42.6749 401.805 43.1333V73H388.055ZM435.084 73.7639C430.552 73.7639 426.885 73 424.084 71.4723C421.334 69.9446 419.323 67.5257 418.05 64.2157C416.828 60.8547 416.217 56.4753 416.217 51.0774C416.217 45.6794 416.828 41.3255 418.05 38.0154C419.323 34.7054 421.334 32.2865 424.084 30.7588C426.885 29.2311 430.552 28.4672 435.084 28.4672C439.667 28.4672 443.333 29.2311 446.083 30.7588C448.833 32.2865 450.819 34.7054 452.041 38.0154C453.315 41.3255 453.951 45.6794 453.951 51.0774C453.951 56.4753 453.315 60.8547 452.041 64.2157C450.819 67.5257 448.833 69.9446 446.083 71.4723C443.333 73 439.667 73.7639 435.084 73.7639ZM435.007 62.9935C436.739 62.9935 437.961 62.0769 438.674 60.2436C439.387 58.3594 439.743 55.3295 439.743 51.1537C439.743 46.9271 439.387 43.8971 438.674 42.0639C437.961 40.1797 436.739 39.2376 435.007 39.2376C433.327 39.2376 432.13 40.1797 431.417 42.0639C430.755 43.8971 430.424 46.9271 430.424 51.1537C430.424 55.3295 430.755 58.3594 431.417 60.2436C432.13 62.0769 433.327 62.9935 435.007 62.9935Z"/>
</mask>
<path d="M291.911 18.0024V12.4801H286.389V18.0024H291.911ZM306.806 18.0024H312.329V12.4801H306.806V18.0024ZM306.806 60.0145H301.284V65.5368H306.806V60.0145ZM323.687 60.0145L329.12 61.0051L330.308 54.4921H323.687V60.0145ZM321.32 73V78.5223H325.926L326.752 73.9907L321.32 73ZM291.911 73H286.389V78.5223H291.911V73ZM291.911 18.0024V23.5247H306.806V18.0024V12.4801H291.911V18.0024ZM306.806 18.0024H301.284V60.0145H306.806H312.329V18.0024H306.806ZM306.806 60.0145V65.5368H323.687V60.0145V54.4921H306.806V60.0145ZM323.687 60.0145L318.255 59.0238L315.887 72.0093L321.32 73L326.752 73.9907L329.12 61.0051L323.687 60.0145ZM321.32 73V67.4777H291.911V73V78.5223H321.32V73ZM291.911 73H297.433V18.0024H291.911H286.389V73H291.911ZM327.111 29.0783V23.556H321.589V29.0783H327.111ZM340.861 29.0783H346.383V23.556H340.861V29.0783ZM340.861 73V78.5223H346.383V73H340.861ZM327.111 73H321.589V78.5223H327.111V73ZM326.729 15.3289V9.8066H321.207V15.3289H326.729ZM341.242 15.3289H346.765V9.8066H341.242V15.3289ZM341.242 25.7174V31.2397H346.765V25.7174H341.242ZM326.729 25.7174H321.207V31.2397H326.729V25.7174ZM327.111 29.0783V34.6006H340.861V29.0783V23.556H327.111V29.0783ZM340.861 29.0783H335.338V73H340.861H346.383V29.0783H340.861ZM340.861 73V67.4777H327.111V73V78.5223H340.861V73ZM327.111 73H332.633V29.0783H327.111H321.589V73H327.111ZM326.729 15.3289V20.8512H341.242V15.3289V9.8066H326.729V15.3289ZM341.242 15.3289H335.72V25.7174H341.242H346.765V15.3289H341.242ZM341.242 25.7174V20.195H326.729V25.7174V31.2397H341.242V25.7174ZM326.729 25.7174H332.252V15.3289H326.729H321.207V25.7174H326.729ZM354.516 72.9236L353.378 78.3275L353.432 78.3389L353.487 78.3492L354.516 72.9236ZM346.953 70.4029H341.431V73.8159L344.484 75.3422L346.953 70.4029ZM346.953 17.3149L346.164 11.8493L341.431 12.533V17.3149H346.953ZM360.703 15.3289H366.225V8.95162L359.913 9.86332L360.703 15.3289ZM360.703 31.6754H355.181V44.1589L364.418 35.7616L360.703 31.6754ZM364.599 29.3075L362.697 24.1227L362.669 24.1332L362.64 24.1441L364.599 29.3075ZM376.285 30.3005L373.162 34.8549L373.237 34.9057L373.312 34.9541L376.285 30.3005ZM380.563 35.1892L375.6 37.6103L375.623 37.6587L375.648 37.7067L380.563 35.1892ZM382.778 42.293L377.32 43.1327L377.329 43.1928L377.34 43.2527L382.778 42.293ZM378.424 68.4169L382.442 72.2052L382.442 72.2052L378.424 68.4169ZM368.265 59.8617L362.99 58.2288L362.972 58.2865L362.955 58.3446L368.265 59.8617ZM368.341 41.6819L363.152 43.5691L363.161 43.5951L363.171 43.6209L368.341 41.6819ZM363.071 39.4667L364.588 44.7766L364.588 44.7766L363.071 39.4667ZM360.703 40.4598L358.119 35.5792L355.181 37.1349V40.4598H360.703ZM360.703 62.6116H355.181V66.8781L359.309 67.9551L360.703 62.6116ZM363.682 73.7639V68.2415C360.853 68.2415 358.142 67.9907 355.545 67.498L354.516 72.9236L353.487 78.3492C356.796 78.9768 360.197 79.2862 363.682 79.2862V73.7639ZM354.516 72.9236L355.653 67.5198C353.107 66.9837 351.053 66.2784 349.423 65.4636L346.953 70.4029L344.484 75.3422C347.132 76.6662 350.119 77.6414 353.378 78.3275L354.516 72.9236ZM346.953 70.4029H352.476V17.3149H346.953H341.431V70.4029H346.953ZM346.953 17.3149L347.743 22.7805L361.492 20.7945L360.703 15.3289L359.913 9.86332L346.164 11.8493L346.953 17.3149ZM360.703 15.3289H355.181V31.6754H360.703H366.225V15.3289H360.703ZM360.703 31.6754L364.418 35.7616C365.003 35.2292 365.7 34.7961 366.557 34.4708L364.599 29.3075L362.64 24.1441C360.544 24.9392 358.643 26.0847 356.988 27.5892L360.703 31.6754ZM364.599 29.3075L366.5 34.4922C367.398 34.1627 368.357 33.9895 369.411 33.9895V28.4672V22.9449C367.103 22.9449 364.854 23.3319 362.697 24.1227L364.599 29.3075ZM369.411 28.4672V33.9895C371.424 33.9895 372.537 34.426 373.162 34.8549L376.285 30.3005L379.409 25.7461C376.469 23.7306 372.999 22.9449 369.411 22.9449V28.4672ZM376.285 30.3005L373.312 34.9541C374.231 35.541 374.995 36.371 375.6 37.6103L380.563 35.1892L385.526 32.768C384.094 29.8316 382.007 27.4024 379.259 25.6468L376.285 30.3005ZM380.563 35.1892L375.648 37.7067C376.412 39.1991 376.99 40.9877 377.32 43.1327L382.778 42.293L388.236 41.4533C387.752 38.3023 386.853 35.355 385.478 32.6717L380.563 35.1892ZM382.778 42.293L377.34 43.2527C377.737 45.5032 377.943 47.93 377.943 50.5427H383.466H388.988C388.988 47.35 388.736 44.2771 388.217 41.3333L382.778 42.293ZM383.466 50.5427H377.943C377.943 58.4069 376.314 62.6047 374.406 64.6285L378.424 68.4169L382.442 72.2052C387.256 67.0997 388.988 59.3814 388.988 50.5427H383.466ZM378.424 68.4169L374.406 64.6285C372.393 66.7637 369.138 68.2415 363.682 68.2415V73.7639V79.2862C371.161 79.2862 377.734 77.1994 382.442 72.2052L378.424 68.4169ZM363.835 63.0699V68.5922C365.837 68.5922 368.02 68.1293 369.938 66.7406C371.884 65.3317 373.006 63.3684 373.575 61.3788L368.265 59.8617L362.955 58.3446C362.93 58.4336 362.932 58.3815 363.016 58.2531C363.106 58.1147 363.254 57.9447 363.46 57.7951C363.901 57.4758 364.174 57.5476 363.835 57.5476V63.0699ZM368.265 59.8617L373.54 61.4945C374.455 58.5394 374.78 54.628 374.78 50.1607H369.258H363.736C363.736 54.3504 363.399 56.9064 362.99 58.2288L368.265 59.8617ZM369.258 50.1607H374.78C374.78 46.1176 374.507 42.3952 373.512 39.7429L368.341 41.6819L363.171 43.6209C363.398 44.2278 363.736 46.1579 363.736 50.1607H369.258ZM368.341 41.6819L373.531 39.7947C372.949 38.193 371.947 36.5533 370.289 35.3382C368.605 34.1032 366.698 33.6389 364.904 33.6389V39.1612V44.6835C364.791 44.6835 364.296 44.6393 363.758 44.2446C363.247 43.8697 363.123 43.4904 363.152 43.5691L368.341 41.6819ZM364.904 39.1612V33.6389C363.706 33.6389 362.557 33.8703 361.554 34.1569L363.071 39.4667L364.588 44.7766C364.782 44.7212 364.907 44.6956 364.972 44.6848C365.039 44.6736 365.01 44.6835 364.904 44.6835V39.1612ZM363.071 39.4667L361.554 34.1569C360.375 34.4936 359.223 34.9947 358.119 35.5792L360.703 40.4598L363.287 45.3403C363.914 45.0082 364.34 44.8473 364.588 44.7766L363.071 39.4667ZM360.703 40.4598H355.181V62.6116H360.703H366.225V40.4598H360.703ZM360.703 62.6116L359.309 67.9551C360.799 68.3438 362.325 68.5922 363.835 68.5922V63.0699V57.5476C363.511 57.5476 362.949 57.4904 362.097 57.2681L360.703 62.6116ZM388.055 73H382.533V78.5223H388.055V73ZM388.055 29.0783V23.556H382.533V29.0783H388.055ZM399.742 29.0783L405.1 27.739L404.054 23.556H399.742V29.0783ZM401.27 35.1892L395.913 36.5285L396.958 40.7115H401.27V35.1892ZM401.423 35.1892V40.7115H405.454L406.682 36.8722L401.423 35.1892ZM405.7 29.613L402.999 24.7968L402.973 24.8111L402.948 24.8257L405.7 29.613ZM413.568 28.6964H419.091V24.0676L414.533 23.259L413.568 28.6964ZM413.568 41.6819V47.2042H419.091V41.6819H413.568ZM407.381 42.0639L406.728 36.5803L406.72 36.5812L406.712 36.5822L407.381 42.0639ZM401.805 43.1333L400.31 37.8172L396.283 38.9498V43.1333H401.805ZM401.805 73V78.5223H407.327V73H401.805ZM388.055 73H393.578V29.0783H388.055H382.533V73H388.055ZM388.055 29.0783V34.6006H399.742V29.0783V23.556H388.055V29.0783ZM399.742 29.0783L394.385 30.4177L395.913 36.5285L401.27 35.1892L406.628 33.8498L405.1 27.739L399.742 29.0783ZM401.27 35.1892V40.7115H401.423V35.1892V29.6668H401.27V35.1892ZM401.423 35.1892L406.682 36.8722C407.14 35.4433 407.775 34.7904 408.453 34.4003L405.7 29.613L402.948 24.8257C399.552 26.7782 397.336 29.8426 396.163 33.5061L401.423 35.1892ZM405.7 29.613L408.402 34.4293C409.049 34.0666 410.276 33.7208 412.604 34.1338L413.568 28.6964L414.533 23.259C410.546 22.5517 406.528 22.817 402.999 24.7968L405.7 29.613ZM413.568 28.6964H408.046V41.6819H413.568H419.091V28.6964H413.568ZM413.568 41.6819V36.1596C411.347 36.1596 409.066 36.302 406.728 36.5803L407.381 42.0639L408.034 47.5475C409.974 47.3165 411.818 47.2042 413.568 47.2042V41.6819ZM407.381 42.0639L406.712 36.5822C404.409 36.863 402.266 37.267 400.31 37.8172L401.805 43.1333L403.3 48.4493C404.603 48.0829 406.177 47.7739 408.049 47.5456L407.381 42.0639ZM401.805 43.1333H396.283V73H401.805H407.327V43.1333H401.805ZM401.805 73V67.4777H388.055V73V78.5223H401.805V73ZM424.084 71.4723L421.402 76.2997L421.421 76.3101L421.44 76.3203L424.084 71.4723ZM418.05 64.2157L412.86 66.1029L412.877 66.1506L412.896 66.1981L418.05 64.2157ZM418.05 38.0154L412.896 36.033L412.882 36.0677L412.869 36.1026L418.05 38.0154ZM424.084 30.7588L421.44 25.9108L421.421 25.921L421.402 25.9314L424.084 30.7588ZM446.083 30.7588L448.765 25.9314L448.765 25.9314L446.083 30.7588ZM452.041 38.0154L446.861 39.9282L446.874 39.9631L446.887 39.9978L452.041 38.0154ZM452.041 64.2157L446.877 62.2595L446.869 62.2812L446.861 62.3029L452.041 64.2157ZM446.083 71.4723L443.402 66.6449L443.402 66.6449L446.083 71.4723ZM438.674 60.2436L443.821 62.2452L443.83 62.2216L443.839 62.1979L438.674 60.2436ZM438.674 42.0639L433.509 44.0182L433.518 44.0418L433.527 44.0654L438.674 42.0639ZM431.417 42.0639L426.252 40.1096L426.238 40.1488L426.223 40.1882L431.417 42.0639ZM431.417 60.2436L426.207 62.0742L426.237 62.1602L426.271 62.2452L431.417 60.2436ZM435.084 73.7639V68.2415C431.11 68.2415 428.449 67.5625 426.729 66.6243L424.084 71.4723L421.44 76.3203C425.322 78.4375 429.993 79.2862 435.084 79.2862V73.7639ZM424.084 71.4723L426.766 66.6449C425.293 65.8264 424.075 64.498 423.204 62.2333L418.05 64.2157L412.896 66.1981C414.571 70.5534 417.376 74.0627 421.402 76.2997L424.084 71.4723ZM418.05 64.2157L423.24 62.3284C422.32 59.798 421.739 56.1259 421.739 51.0774H416.217H410.694C410.694 56.8246 411.336 61.9114 412.86 66.1029L418.05 64.2157ZM416.217 51.0774H421.739C421.739 46.0232 422.321 42.3909 423.23 39.9282L418.05 38.0154L412.869 36.1026C411.334 40.26 410.694 45.3357 410.694 51.0774H416.217ZM418.05 38.0154L423.204 39.9978C424.075 37.7331 425.293 36.4046 426.766 35.5862L424.084 30.7588L421.402 25.9314C417.376 28.1684 414.571 31.6777 412.896 36.033L418.05 38.0154ZM424.084 30.7588L426.729 35.6068C428.449 34.6686 431.11 33.9895 435.084 33.9895V28.4672V22.9449C429.993 22.9449 425.322 23.7935 421.44 25.9108L424.084 30.7588ZM435.084 28.4672V33.9895C439.129 33.9895 441.762 34.6755 443.402 35.5862L446.083 30.7588L448.765 25.9314C444.905 23.7867 440.205 22.9449 435.084 22.9449V28.4672ZM446.083 30.7588L443.401 35.5862C444.855 36.3937 446.037 37.6962 446.861 39.9282L452.041 38.0154L457.222 36.1026C455.602 31.7146 452.811 28.1793 448.765 25.9314L446.083 30.7588ZM452.041 38.0154L446.887 39.9978C447.824 42.4346 448.429 46.0398 448.429 51.0774H453.951H459.473C459.473 45.319 458.805 40.2164 457.196 36.033L452.041 38.0154ZM453.951 51.0774H448.429C448.429 56.1092 447.826 59.7547 446.877 62.2595L452.041 64.2157L457.206 66.1718C458.803 61.9547 459.473 56.8414 459.473 51.0774H453.951ZM452.041 64.2157L446.861 62.3029C446.037 64.5349 444.855 65.8374 443.402 66.6449L446.083 71.4723L448.765 76.2997C452.811 74.0518 455.602 70.5165 457.222 66.1284L452.041 64.2157ZM446.083 71.4723L443.402 66.6449C441.762 67.5556 439.129 68.2415 435.084 68.2415V73.7639V79.2862C440.205 79.2862 444.905 78.4444 448.765 76.2997L446.083 71.4723ZM435.007 62.9935V68.5158C436.901 68.5158 438.844 67.9931 440.536 66.7239C442.178 65.4926 443.197 63.8504 443.821 62.2452L438.674 60.2436L433.527 58.2421C433.438 58.4701 433.49 58.2029 433.909 57.8882C434.116 57.7334 434.347 57.6179 434.574 57.5475C434.794 57.4792 434.951 57.4712 435.007 57.4712V62.9935ZM438.674 60.2436L443.839 62.1979C444.927 59.321 445.266 55.4371 445.266 51.1537H439.743H434.221C434.221 55.2219 433.846 57.3979 433.509 58.2893L438.674 60.2436ZM439.743 51.1537H445.266C445.266 46.8471 444.934 42.9236 443.821 40.0623L438.674 42.0639L433.527 44.0654C433.84 44.8706 434.221 47.007 434.221 51.1537H439.743ZM438.674 42.0639L443.839 40.1096C443.229 38.4968 442.228 36.8299 440.594 35.5704C438.9 34.2643 436.936 33.7153 435.007 33.7153V39.2376V44.7599C434.937 44.7599 434.765 44.7496 434.532 44.6754C434.293 44.5989 434.057 44.4762 433.851 44.3179C433.439 44.0005 433.406 43.7467 433.509 44.0182L438.674 42.0639ZM435.007 39.2376V33.7153C433.064 33.7153 431.107 34.2875 429.434 35.6051C427.831 36.867 426.853 38.5232 426.252 40.1096L431.417 42.0639L436.582 44.0182C436.695 43.7203 436.672 43.9634 436.265 44.2833C436.06 44.4453 435.815 44.5776 435.556 44.6624C435.304 44.7451 435.107 44.7599 435.007 44.7599V39.2376ZM431.417 42.0639L426.223 40.1882C425.211 42.9924 424.902 46.8577 424.902 51.1537H430.424H435.947C435.947 46.9964 436.3 44.8018 436.611 43.9395L431.417 42.0639ZM430.424 51.1537H424.902C424.902 55.4249 425.216 59.253 426.207 62.0742L431.417 60.2436L436.627 58.413C436.295 57.4659 435.947 55.234 435.947 51.1537H430.424ZM431.417 60.2436L426.271 62.2452C426.884 63.8235 427.88 65.4557 429.492 66.6901C431.164 67.9712 433.1 68.5158 435.007 68.5158V62.9935V57.4712C435.093 57.4712 435.274 57.4835 435.514 57.5599C435.76 57.6384 436 57.7631 436.208 57.922C436.622 58.2397 436.663 58.497 436.564 58.2421L431.417 60.2436Z" fill="white" mask="url(#path-2-outside-1_17_11)"/>
</svg>
